<?xml version="1.0" encoding="utf-8"?>
<!-- Generator: Adobe Illustrator 24.0.1, SVG Export Plug-In . SVG Version: 6.00 Build 0)  -->
<svg version="1.1" id="Layer_1" xmlns="http://www.w3.org/2000/svg" xmlns:xlink="http://www.w3.org/1999/xlink" x="0px" y="0px"
	 viewBox="0 0 4025.2 2607.9" style="enable-background:new 0 0 4025.2 2607.9;" xml:space="preserve">
<style type="text/css">
	.st0{fill:#0768C1;}
	.st1{fill:#073C68;}
	.st2{fill:#062C49;}
	.st3{fill:#043A68;}
	.st4{fill:#053B6A;}
	.st5{fill:#063B69;}
	.st6{fill:#042B48;}
	.st7{fill:#0A3D68;}
	.st8{fill:#072D4B;}
	.st9{fill:#063D6C;}
	.st10{fill:#0B3E6A;}
	.st11{fill:#062D4C;}
	.st12{fill:#34526F;}
	.st13{fill:#3170A8;}
	.st14{fill:#052D53;}
	.st15{fill:#07375C;}
	.st16{fill:#2A3E52;}
	.st17{fill:#3C7DB6;}
	.st18{fill:#04243D;}
	.st19{fill:#2268A6;}
	.st20{fill:#335B7C;}
	.st21{fill:#BCBEC0;}
	.st22{fill:#276CAC;}
	.st23{fill:#04355C;}
</style>
<g>
	<g>
		<path class="st0" d="M2029.6,1301.2c5.4,0,10.8,0,16.2,0c0.2,0.4,0.3,0.8,0.5,1.2c-7,8.6-14.1,17.2-21.1,25.7
			c-0.3,0.3-0.5,0.6-0.8,0.9c0,0,0.1-0.1,0.1-0.1c-0.3,0.4-0.7,0.9-1,1.3c0,0,0,0,0,0c-0.2,0.3-0.5,0.5-0.7,0.8c0,0,0,0,0,0
			c-0.2,0.3-0.5,0.6-0.7,0.9c0,0,0-0.1,0-0.1c-0.2,0.3-0.5,0.6-0.7,0.9c0,0,0.1,0,0.1,0c-1.9,0-3.7,0-5.6,0c0,0,0.1,0,0.1,0
			c-0.2-0.3-0.5-0.6-0.7-0.9c0,0,0,0,0,0c-0.6-0.7-1.1-1.4-1.7-2.1c0,0,0.1,0.1,0.1,0.1c-0.3-0.3-0.6-0.6-0.8-0.9
			c-4.2-5.2-8.4-10.4-12.6-15.6c-0.2-0.3-0.5-0.6-0.7-0.9c0,0,0,0,0,0c-0.3-0.4-0.7-0.8-1-1.2c0,0-0.1-0.1-0.1-0.1
			c-0.2-0.3-0.4-0.5-0.6-0.8c-0.2-0.3-0.5-0.6-0.7-0.8c0,0,0,0,0,0c-0.2-0.3-0.5-0.6-0.7-0.8c0,0,0,0,0,0c-0.2-0.3-0.5-0.5-0.7-0.8
			c0,0,0,0,0,0c-0.8-1-1.6-1.9-2.3-2.9c0,0,0,0,0,0c-0.2-0.3-0.5-0.5-0.7-0.8c0,0,0,0,0,0c1.1-0.5,2.1-1.4,3.2-1.5
			c3.6-0.5,7.3-0.7,11-1c0.3-0.2,0.6-0.3,0.9-0.5c0.2-0.8,0.5-1.5,0.7-2.3c0-15.4,0-30.8,0-46.2c0-2.4,0.1-4,3.2-4
			c4.7,0,9.4-0.4,14.1-0.7c0,0-0.1,0-0.1,0c2.6,0.9,3.2,2.7,3,5.3c-0.2,2.3,0.4,4.6,0.6,6.8c0,0.3,0.1,0.7,0.1,1
			c0,0,0.1,0.2,0.1,0.2s-0.1,0.2-0.1,0.2c-0.3,0.9-0.7,1.8-0.7,2.7c-0.1,11.4-0.1,22.8,0,34.3
			C2028.8,1299.5,2029.3,1300.3,2029.6,1301.2z"/>
		<path class="st1" d="M1965.7,1254.8c11.1-1.7,22.2-3.4,33.3-5.1c1.8-0.3,2.6,0.3,2.4,2.1c0,0.1,0,0.2,0,0.4
			c0.5,9.8,0.4,9.8-9.4,11.1c-4,0.5-7.9,1.2-11.9,1.6c-2.4,0.2-3.3,1.1-3.2,3.7c0.2,9.8,0.2,19.7,0,29.5
			c-0.4,18.3,7.5,32.4,21.9,43.1c6.1,4.5,12.9,7.9,19.4,11.8c0.2,4.4,0.5,8.9,0.7,13.3c-2.2-0.8-4.4-1.5-6.5-2.5
			c-10.1-5-19.8-10.6-28-18.5c-11.3-10.8-18.6-23.6-19.5-39.5c0.2-1.1,0.7-2.1,0.7-3.2C1965.7,1286.6,1965.7,1270.7,1965.7,1254.8z"
			/>
		<path class="st2" d="M2019,1366.2c-0.2-4.4-0.5-8.9-0.7-13.3c13.1-5.7,24.9-13,33.3-24.9c5.7-8,8.8-16.9,8.8-26.8
			c0-11,0-22.1,0.1-33.1c0-2-0.6-2.8-2.6-3c-4.4-0.5-8.9-1.4-13.3-2.1c3.5-1.4,7.1-2.9,10.6-4.3c0.9-0.4,2.6-0.7,2.6-1.2
			c0.1-1.3-0.4-2.7-0.8-3.9c-0.2-0.5-0.8-0.8-1.3-1.2c5.3,0.8,10.6,1.6,15.8,2.4c0.3,0.8,0.7,1.6,1,2.4c0,1.3,0,2.5,0,3.8
			c0,3.2,0,6.5,0,9.7c0,0.8,0,1.5,0,2.3c0,1.2,0,2.5,0,3.7c0,2,0,4,0,6c0,0.7,0,1.5,0,2.2c0,2.7,0,5.5,0,8.2c-0.1,5-0.2,10-0.3,14.9
			c-1.1,12.9-6.8,23.7-15.3,33.2C2046.5,1352.8,2033.2,1360.3,2019,1366.2z"/>
		<path class="st3" d="M1943,1223.1c0,0,0.1-0.3,0.1-0.3c6.3,0.4,10,8.2,7.2,13.7c-2.9,5.8-4.6,5.7,1,11.1c1.2,1.1,2.4,2.2,3.7,3.1
			c1.9,1.2,2.5,2.6,2.5,4.9c-0.1,14.7-0.1,29.3,0,44c0,1.3,0.4,2.6,0.6,3.9c0.4,9.7,2.8,18.9,7.3,27.6c-4.2,0.9-8.4,1.8-11.8,4.9
			c-2.8,2.5-5.8,5.2-10.2,4.2c0-8.5,0-17-0.1-25.4c0.2-0.9,0.6-1.9,0.6-2.8c0-12.3,0-24.6,0-36.9c0-0.9-0.4-1.9-0.6-2.8
			c0-5,0-9.9-0.1-14.9C1943.2,1245.9,1943.1,1234.5,1943,1223.1z"/>
		<path class="st4" d="M1958.2,1303.5c-0.2-1.3-0.6-2.6-0.6-3.9c0-14.7-0.1-29.3,0-44c0-2.3-0.6-3.7-2.5-4.9c-1.4-0.8-2.6-2-3.7-3.1
			c-5.6-5.4-3.9-5.3-1-11.1c2.7-5.5-0.9-13.3-7.2-13.7c0.7-3.5,2.6-5.8,6.2-6.6c0.9,0.2,1.9,0.6,2.8,0.6c12.5,0,24.9,0,37.4,0
			c0.8,0,1.7-0.3,2.5-0.5c0.5,0.6,1.1,1.2,1.6,1.8c-0.5,0.7-1,1.3-1.3,2c-0.4,0.9-0.9,2.1-0.6,2.9c0.2,0.6,1.5,1.2,2.3,1.2
			c1.4,0,2.7-0.5,4.1-0.8c0.5,0.6,0.9,1.1,1.4,1.7c-0.2,0.3-0.5,0.6-0.6,0.9c-0.3,1-0.5,2-0.8,3c1-0.7,2-1.3,3-2
			c1,0.7,1.9,1.3,2.9,2c1.2,0,2.5,0,3.7,0c1,0,2,0,3,0.1c-1.8,6.1-4.4,7.6-10.2,5.8c-0.7-0.2-1.4-0.6-2.1-0.7
			c-3.3-0.4-6.6-1-9.6,1.6c-0.6,0.5-2.2-0.2-3.3-0.4c-0.8-0.2-1.6-0.4-2.4-0.7c0.2,0.9,0.2,2.1,0.8,2.6c0.7,0.6,2,0.6,3,1
			c2.9,1.1,5.8,2.3,9.5,3.7c-3.8,1-6.3,1.8-8.9,2.5c-8.2,1.3-16.5,2.7-24.7,3.8c-3.5,0.4-4.6,1.6-4.6,5.3
			C1958.4,1270.2,1958.2,1286.8,1958.2,1303.5z"/>
		<path class="st5" d="M1987.5,1244.5c2.6-0.7,5.1-1.4,8.9-2.5c-3.7-1.4-6.6-2.6-9.5-3.7c-1-0.4-2.2-0.3-3-1
			c-0.6-0.5-0.5-1.7-0.8-2.6c0.8,0.2,1.6,0.5,2.4,0.7c1.1,0.2,2.7,0.9,3.3,0.4c3-2.5,6.3-1.9,9.6-1.6c0.7,0.1,1.4,0.4,2.1,0.7
			c5.8,1.7,8.3,0.3,10.2-5.8c5.3,0,10.5-0.1,15.8-0.1c1.5,0,3,0,4.5,0c3,0,6,0,9,0c3.5,0,7,0,10.5,0c4,0,8,0,12,0
			c3.3,0.1,6.6,0.2,10,0.3c3.8,0.8,5.7,3.6,6.2,7.1c0.5,3.5,0.2,7.2,0.2,10.8c0,2.5-1.8,1.5-2.9,1.3c-14.8-2.2-29.7-3.8-44.4-6.7
			c-11.8-2.3-23.1-0.2-34.5,1.4C1993.9,1243.8,1990.7,1244.1,1987.5,1244.5z"/>
		<path class="st6" d="M2078.8,1317.7c0,2.7,0,5.5,0,8.2c-0.2,1.3-0.6,2.6-0.6,3.9c-0.1,9.9,0,19.8,0,29.7
			c-8.1,4.1-16.2,8.1-24.3,12.2c-2.1,1.1-2.3,0.2-2.3-1.6c0-4.3-0.1-8.7,0-13c0-1.2,0.7-2.7,1.6-3.4c9.6-8,16.8-17.9,21.9-29.3
			c0.2-0.4,0.3-0.8,0.5-1.3c0.6-1.8,1.2-3.6,1.7-5.5C2077.9,1317.7,2078.4,1317.7,2078.8,1317.7z"/>
		<path class="st7" d="M2018.3,1388.6c-8.1-3.9-16.1-7.7-24.1-11.7c-0.9-0.5-1.9-2-2-3c-0.2-4.5-0.1-8.9-0.1-13.5
			c9,4.5,18,9,26.9,13.4c0,4,0.1,8,0,12C2018.9,1386.7,2018.5,1387.6,2018.3,1388.6z"/>
		<path class="st8" d="M2018.3,1388.6c0.2-0.9,0.7-1.9,0.7-2.8c0.1-4,0-8,0-12c8.7-4.5,17.4-8.9,26.3-13.5c0,4.8,0,9.7-0.1,14.6
			c0,0.6-0.6,1.4-1.1,1.7c-8.5,4.1-17,8.1-25.5,12.2C2018.5,1388.7,2018.4,1388.6,2018.3,1388.6z"/>
		<path class="st9" d="M1943.4,1340.1c4.4,1,7.4-1.7,10.2-4.2c3.5-3.1,7.6-3.9,11.8-4.9c3.8,5.5,7.6,11,11.7,16.9
			c-3.2,0-6.4,0-9.7,0c-5.4,0-10.7,0.1-16.1-0.1c-4.5-0.1-6.9-2.2-8.2-6.7C1943.2,1340.8,1943.3,1340.4,1943.4,1340.1z"/>
		<path class="st10" d="M1985.8,1363.5c0,9.5,0,9.5-8.3,5.3c-5.5-2.7-11-5.3-16.4-8.2c-1.2-0.6-2.2-2.1-2.6-3.4
			c-0.6-2,0.2-3.1,2.7-3c7.1,0.2,14.2,0.2,21.3,0c2.6-0.1,3.6,0.7,3.4,3.4C1985.6,1359.5,1985.8,1361.5,1985.8,1363.5z"/>
		<path class="st11" d="M2055.6,1252.3c0.4,0.4,1.1,0.7,1.3,1.2c0.4,1.3,0.9,2.6,0.8,3.9c0,0.5-1.7,0.8-2.6,1.2
			c-3.5,1.4-7.1,2.9-10.6,4.3c-5-0.6-10-1.2-15-1.8c0-0.3-0.1-0.7-0.1-1c0-2.8,0-5.7,0.2-8.5c0.1-1,0.9-2,1.4-3
			c7.2,1.1,14.5,2.2,21.7,3.3c0.2,0,0.5,0,0.7,0.1C2054.2,1252.1,2054.9,1252.2,2055.6,1252.3z"/>
		<path class="st12" d="M1943.4,1340.1c-0.1,0.3-0.2,0.7-0.3,1c-0.2-1.3-0.6-2.7-0.6-4c0-36.8,0-73.6,0-110.4c0-1.2,0.3-2.4,0.5-3.6
			c0.1,11.4,0.2,22.8,0.3,34.2c0,5,0,9.9,0.1,14.9c0,14.2,0,28.3,0,42.5C1943.4,1323.1,1943.4,1331.6,1943.4,1340.1z"/>
		<path class="st13" d="M2025.9,1248.1c-4.7,0.3-9.4,0.7-14.1,0.7c-3.1,0-3.3,1.6-3.2,4c0.1,15.4,0,30.8,0,46.2c-0.2,0-0.4,0-0.6,0
			c0-16-0.1-32,0-48c0-0.9,0.8-2.6,1.5-2.7C2014.8,1247.2,2020.3,1245.9,2025.9,1248.1z"/>
		<path class="st14" d="M1965.7,1254.8c0,15.9,0,31.9,0,47.8c0,1.1-0.4,2.1-0.7,3.2c-0.1-15.3-0.3-30.6-0.3-45.9
			C1964.8,1258.2,1965.4,1256.5,1965.7,1254.8z"/>
		<path class="st15" d="M1992,1216.3c-0.8,0.2-1.7,0.5-2.5,0.5c-12.5,0-24.9,0-37.4,0c-0.9,0-1.9-0.4-2.8-0.6
			C1963.5,1216.2,1977.7,1216.3,1992,1216.3z"/>
		<path class="st13" d="M2029.6,1301.2c-0.3-0.9-0.8-1.8-0.8-2.7c-0.1-11.4-0.1-22.8,0-34.3c0-0.9,0.5-1.8,0.7-2.7
			C2029.6,1274.8,2029.6,1288,2029.6,1301.2z"/>
		<path class="st5" d="M1998.1,1223.5c-1.4,0.3-2.7,0.8-4.1,0.8c-0.8,0-2.2-0.6-2.3-1.2c-0.3-0.8,0.3-2,0.6-2.9
			c0.3-0.7,0.9-1.4,1.3-2c0.2,0.3,0.5,0.6,0.7,0.8c0.2,0.3,0.5,0.6,0.7,0.8C1996,1221,1997,1222.2,1998.1,1223.5z"/>
		<path class="st16" d="M2078.2,1359.5c0-9.9,0-19.8,0-29.7c0-1.3,0.4-2.6,0.6-3.9c0.1,10.7,0.1,21.4,0.2,32.1
			C2079,1358.5,2078.5,1359,2078.2,1359.5z"/>
		<path class="st17" d="M2006.9,1301.8c-3.7,0.3-7.3,0.5-11,1c-1.1,0.1-2.1,1-3.2,1.5c-0.5-0.7-1-1.3-1.5-2c0.7-0.3,1.5-0.7,2.2-0.7
			C1998,1301.5,2002.5,1301.7,2006.9,1301.8z"/>
		<path class="st18" d="M2072.2,1308c0.1-5,0.2-10,0.3-14.9C2072.4,1298,2072.3,1303,2072.2,1308z"/>
		<path class="st18" d="M2072.5,1270.6c0-3.2,0-6.5,0-9.7C2072.5,1264.2,2072.5,1267.4,2072.5,1270.6z"/>
		<path class="st13" d="M2031,1248.7c-0.5,1-1.3,2-1.4,3c-0.2,2.8-0.2,5.7-0.2,8.5c-0.2-2.3-0.7-4.6-0.6-6.8c0.2-2.6-0.4-4.4-3-5.3
			C2027.5,1248.3,2029.3,1248.5,2031,1248.7z"/>
		<path class="st19" d="M2015.8,1332.8c1.9,0,3.7,0,5.6,0C2018.6,1337,2018.6,1337,2015.8,1332.8z"/>
		<path class="st5" d="M2001.1,1227.1c-1,0.7-2,1.3-3,2c0.3-1,0.5-2,0.8-3c0.1-0.3,0.4-0.6,0.6-0.9
			C2000,1225.8,2000.6,1226.4,2001.1,1227.1z"/>
		<path class="st20" d="M2050.5,1229.1c-3.5,0-7,0-10.5,0C2043.5,1229.1,2047,1229.1,2050.5,1229.1z"/>
		<path class="st20" d="M2072.5,1229.4c-3.3-0.1-6.6-0.2-10-0.3C2065.8,1229.2,2069.2,1229.3,2072.5,1229.4z"/>
		<path class="st16" d="M2078.8,1317.7c-0.5,0-0.9,0-1.4,0c0.3-1.7,0.7-3.3,1-5c0,0,0.2,0,0.2,0l0.2-0.2
			C2078.8,1314.3,2078.8,1316,2078.8,1317.7z"/>
		<path class="st18" d="M2072.5,1276.6c0-1.2,0-2.5,0-3.7C2072.5,1274.1,2072.5,1275.4,2072.5,1276.6z"/>
		<path class="st17" d="M1993.4,1305c0.8,1,1.6,1.9,2.3,2.9C1995,1307,1994.2,1306,1993.4,1305z"/>
		<path class="st20" d="M2031,1229.1c-1.5,0-3,0-4.5,0C2028,1229.1,2029.5,1229.1,2031,1229.1z"/>
		<path class="st18" d="M2072.5,1284.8c0-0.7,0-1.5,0-2.2C2072.5,1283.3,2072.5,1284.1,2072.5,1284.8z"/>
		<path class="st20" d="M2007.7,1229.1c-1.2,0-2.5,0-3.7,0C2005.3,1229.1,2006.5,1229.1,2007.7,1229.1z"/>
		<path class="st21" d="M2078.8,1312.5l-0.2,0.2c0,0-0.2,0-0.2,0c0.1-0.6,0.2-1.2,0.3-1.8c0.2,0.1,0.6,0.2,0.6,0.3
			C2079.1,1311.6,2079,1312,2078.8,1312.5z"/>
		<path class="st22" d="M2013.5,1329.8c0.6,0.7,1.1,1.4,1.7,2.1C2014.6,1331.2,2014.1,1330.5,2013.5,1329.8z"/>
		<path class="st17" d="M2007.9,1299c0.2,0,0.4,0,0.6,0c-0.2,0.8-0.5,1.5-0.7,2.3C2007.8,1300.5,2007.9,1299.8,2007.9,1299z"/>
		<path class="st18" d="M2072.5,1257.1c-0.3-0.8-0.7-1.6-1-2.4C2071.8,1255.5,2072.2,1256.3,2072.5,1257.1z"/>
		<path class="st17" d="M1998.5,1311.3c0.3,0.4,0.7,0.8,1,1.2C1999.1,1312.1,1998.8,1311.7,1998.5,1311.3z"/>
		<path class="st13" d="M2023.5,1330.3c0.3-0.4,0.7-0.9,1-1.3C2024.1,1329.5,2023.8,1329.9,2023.5,1330.3z"/>
		<path class="st17" d="M1996.4,1308.8c0.2,0.3,0.5,0.6,0.7,0.8C1996.9,1309.3,1996.7,1309,1996.4,1308.8z"/>
		<path class="st17" d="M1997.1,1309.6c0.2,0.3,0.5,0.6,0.7,0.8C1997.6,1310.1,1997.3,1309.8,1997.1,1309.6z"/>
		<path class="st13" d="M2024.4,1329.1c0.3-0.3,0.5-0.6,0.8-0.9C2024.9,1328.5,2024.7,1328.8,2024.4,1329.1z"/>
		<path class="st22" d="M2012.8,1329c0.3,0.3,0.6,0.6,0.8,0.9C2013.3,1329.6,2013,1329.3,2012.8,1329z"/>
		<path class="st17" d="M1997.8,1310.4c0.2,0.3,0.4,0.5,0.6,0.8C1998.2,1310.9,1998,1310.7,1997.8,1310.4z"/>
		<path class="st4" d="M1995,1219.8c-0.2-0.3-0.5-0.6-0.7-0.8C1994.5,1219.2,1994.8,1219.5,1995,1219.8z"/>
		<path class="st13" d="M2022.8,1331.2c0.2-0.3,0.5-0.5,0.7-0.8C2023.2,1330.6,2023,1330.9,2022.8,1331.2z"/>
		<path class="st2" d="M2053.5,1252c-0.2,0-0.5,0-0.7-0.1C2053,1252,2053.2,1252,2053.5,1252z"/>
		<path class="st13" d="M2022.1,1332c0.2-0.3,0.5-0.6,0.7-0.9C2022.5,1331.4,2022.3,1331.7,2022.1,1332z"/>
		<path class="st19" d="M2015.2,1331.9c0.2,0.3,0.5,0.6,0.7,0.9C2015.7,1332.5,2015.4,1332.2,2015.2,1331.9z"/>
		<path class="st19" d="M2021.4,1332.8c0.2-0.3,0.5-0.6,0.7-0.9C2021.9,1332.2,2021.6,1332.5,2021.4,1332.8z"/>
		<path class="st17" d="M1999.5,1312.5c0.2,0.3,0.5,0.6,0.7,0.9C1999.9,1313.1,1999.7,1312.8,1999.5,1312.5z"/>
		<path class="st17" d="M1992.8,1304.2c0.2,0.3,0.5,0.5,0.7,0.8C1993.2,1304.8,1993,1304.5,1992.8,1304.2z"/>
		<path class="st17" d="M1995.8,1308c0.2,0.3,0.5,0.5,0.7,0.8C1996.2,1308.5,1996,1308.2,1995.8,1308z"/>
		<path class="st16" d="M2075.7,1323.1c-0.2,0.4-0.3,0.8-0.5,1.3C2075.4,1324,2075.5,1323.6,2075.7,1323.1z"/>
		<path class="st23" d="M1943.3,1314.6c0-14.2,0-28.3,0-42.5c0.2,0.9,0.6,1.9,0.6,2.8c0,12.3,0,24.6,0,36.9
			C1944,1312.8,1943.6,1313.7,1943.3,1314.6z"/>
	</g>
</g>
</svg>
